<svg id="Layer_1" data-name="Layer 1" xmlns="http://www.w3.org/2000/svg" viewBox="0 0 249.19 215.8"><defs><style>.cls-1{font-size:44.78px;}.cls-1,.cls-3{fill:#fdfdfb;}.cls-1,.cls-4{font-family:MyriadPro-Regular, Myriad Pro;}.cls-2{fill:none;stroke:#fff;stroke-miterlimit:10;stroke-width:2px;}.cls-4{font-size:14.63px;}.cls-5{letter-spacing:-0.02em;}</style></defs><polygon points="184.39 0 183.13 5 240.53 5 182.56 105.4 124.59 205.8 66.63 105.4 8.66 5 66.11 5 64.71 0 0 0 124.59 215.8 249.19 0 184.39 0"/><polygon points="231.87 10 124.59 195.8 17.32 10 67.5 10 66.11 5 8.66 5 66.63 105.4 124.59 205.8 182.56 105.4 240.53 5 183.13 5 181.86 10 231.87 10"/><polygon points="158.44 61.8 171.55 10 77.89 10 92.39 61.8 158.44 61.8"/><polygon points="172.31 7 77.05 7 77.89 10 171.55 10 172.31 7"/><polygon points="71.3 5 70.46 2 178.73 2 177.97 5 183.13 5 184.39 0 64.71 0 66.11 5 71.3 5"/><polygon points="158.44 61.8 92.39 61.8 77.89 10 72.7 10 88.59 66.8 162.33 66.8 176.7 10 171.55 10 158.44 61.8"/><polygon points="177.97 5 178.73 2 70.46 2 71.3 5 124.59 5 177.97 5"/><polygon points="77.89 10 77.05 7 172.31 7 171.55 10 176.7 10 177.97 5 124.59 5 71.3 5 72.7 10 77.89 10"/><text class="cls-1" transform="translate(105.42 47.4) scale(0.48 1)">&lt;</text><text class="cls-1" transform="translate(144.02 24.4) rotate(180) scale(0.48 1)">&lt;</text><line class="cls-2" x1="126.59" y1="21.48" x2="121.55" y2="51.47"/><rect class="cls-3" x="63.09" y="85.97" width="123.01" height="38.86"/><path d="M197.19,281h5.34v16.76h-3.68v-13l.15.74-4.12,10.41H191.3l-4.11-10.18.15-1v13h-3.69V281H189l4.1,11.3Z" transform="translate(-113.62 -190.59)"/><path d="M213.12,281h2.58l8.22,16.76h-4.36l-5.15-11.44-5.15,11.44H204.9Zm-4.27,11h11.32v3.05H208.85Z" transform="translate(-113.62 -190.59)"/><path d="M229.15,297.69a16.38,16.38,0,0,1-2.76-.71,11.12,11.12,0,0,1-2.32-1.13l1.88-2.6a9.94,9.94,0,0,0,2.87,1.22,12.94,12.94,0,0,0,3.35.44,7.24,7.24,0,0,0,3.07-.53,1.63,1.63,0,0,0,1.1-1.48h0a1.3,1.3,0,0,0-.49-1.06,3.32,3.32,0,0,0-1.27-.58c-.53-.12-1.2-.23-2-.33h-.08l-.08,0-.32,0a25.87,25.87,0,0,1-3.58-.66,5.45,5.45,0,0,1-2.42-1.4,3.84,3.84,0,0,1-1-2.83h0a4.25,4.25,0,0,1,.94-2.78,5.79,5.79,0,0,1,2.7-1.76,13.54,13.54,0,0,1,4.29-.6,14.74,14.74,0,0,1,2.36.2,15.69,15.69,0,0,1,2.36.6,15.39,15.39,0,0,1,2.19.95l-1.71,2.67a12.35,12.35,0,0,0-2.6-1,9.71,9.71,0,0,0-2.6-.37,6.93,6.93,0,0,0-2.88.48,1.47,1.47,0,0,0-1,1.34h0a1.39,1.39,0,0,0,.53,1.15,3.59,3.59,0,0,0,1.32.62c.52.13,1.25.26,2.2.41l.12,0h.12l.17,0a.47.47,0,0,0,.17,0,21.76,21.76,0,0,1,3.41.76,5.19,5.19,0,0,1,2.28,1.43,3.74,3.74,0,0,1,.92,2.69v0a4.13,4.13,0,0,1-1,2.75,6,6,0,0,1-2.8,1.74,14.43,14.43,0,0,1-4.43.6A18.84,18.84,0,0,1,229.15,297.69Z" transform="translate(-113.62 -190.59)"/><path d="M241.1,281h15.77v3H241.1Zm5.86,1.37h4v15.39h-4Z" transform="translate(-113.62 -190.59)"/><path d="M259.24,281h4.05v16.76h-4.05Zm1.47,0h12.94v3H260.71Zm0,6.92H272v3H260.71Zm0,6.8h12.94v3H260.71Z" transform="translate(-113.62 -190.59)"/><path d="M277.35,281h4v16.77h-4Zm1.61,7h7.49a2.37,2.37,0,0,0,1.09-.25,1.68,1.68,0,0,0,.73-.69,2.12,2.12,0,0,0,0-2.07,1.82,1.82,0,0,0-.73-.7,2.45,2.45,0,0,0-1.11-.24H279v-3h7.81a7.39,7.39,0,0,1,3.12.62,4.84,4.84,0,0,1,2.09,1.76,5.06,5.06,0,0,1,0,5.27,4.84,4.84,0,0,1-2.09,1.76,7.49,7.49,0,0,1-3.12.62H279Zm4.53,2.52,4.33-.53,5.8,7.79h-4.91Z" transform="translate(-113.62 -190.59)"/><text class="cls-4" transform="translate(80.45 123.5) scale(2.04 1)"><tspan class="cls-5">C</tspan><tspan x="8.18" y="0">ODER</tspan></text></svg>